<?xml version="1.0" encoding="UTF-8"?>
<svg id="Layer_1" data-name="Layer 1" xmlns="http://www.w3.org/2000/svg" xmlns:xlink="http://www.w3.org/1999/xlink" viewBox="-15 2 615.49 615.49">
  <defs>
    <style>
      .cls-1 {
        fill: #fff;
      }

      .cls-1, .cls-2 {
        fill-rule: evenodd;
      }

      .cls-2, .cls-3 {
        fill: #010101;
      }

      .cls-4 {
        fill: url(#linear-gradient);
      }
    </style>
    <linearGradient id="linear-gradient" x1="155.35" y1="241.66" x2="436.39" y2="241.66" gradientTransform="translate(-45.01 59.32) rotate(-10.08)" gradientUnits="userSpaceOnUse">
      <stop offset=".02" stop-color="#0f0d13"/>
      <stop offset=".09" stop-color="#211739"/>
      <stop offset=".18" stop-color="#442c70"/>
      <stop offset=".24" stop-color="#5d3c97"/>
      <stop offset=".38" stop-color="#7663ab"/>
      <stop offset=".53" stop-color="#717fbe"/>
      <stop offset=".61" stop-color="#6aacde"/>
      <stop offset=".74" stop-color="#69cce2"/>
      <stop offset=".85" stop-color="#cee293"/>
      <stop offset=".93" stop-color="#ffdc7a"/>
      <stop offset="1" stop-color="#fff"/>
    </linearGradient>
  </defs>
  <rect class="cls-3" width="580.49" height="615.49"/>
  <path class="cls-1" d="m126.76,349.76v-25.31c-7.85.48-15.37,1.39-22.59,4.02-4.35,1.59-4.71,3-1.77,6.5.72.86,1.46,1.78,2.38,2.37,5.74,3.66,11.49,7.28,17.32,10.78,1.34.8,3,1.07,4.65,1.63h0Zm-44.22-74.69c1.17.19,2.44.16,3.46.64.8.38,1.3,1.4,1.93,2.13-.77.55-1.5,1.52-2.31,1.58-2.92.21-6.4.62-7.91-2.44-1.39-2.83.87-5.43,2.83-7.2,1.9-1.73,4.43-3.11,6.92-3.78,9.62-2.58,19.47-3.15,29.34-1.85,24.36,3.19,46.37,12.16,65.66,27.43,9.38,7.43,17.13,16.15,21.9,27.47,4.09,9.72,2.83,18.49-2.43,27.13-4.91,8.07-12.52,12.47-21.19,15.28-12.63,4.09-25.48,4.48-38.45,1.9-3.33-.66-3.32-.7-3.92,2.55-.43,2.35-2.11,3.24-4.24,3.51-2.59.32-5.25-1.17-5.94-3.6-.7-2.48-1.03-5.06-1.55-7.78-7.95-3.31-15.1-8.27-21.48-14.29-2.18-2.06-4.15-4.42-5.87-6.88-3.73-5.35-2.89-9.87,2.58-13.42,6.61-4.3,13.95-6.89,21.71-8.05,2.7-.4,3.42-1.33,3.51-4.03.18-5.25.81-10.51,1.53-15.72.25-1.77,1.32-3.42,2.07-5.25,2.72.85,4.02,2.65,4.45,4.57,1.13,5.02,2.01,10.11,2.64,15.22.43,3.45.16,3.48,3.71,3.47,7.83-.02,15.54.94,23.03,3.27,4.05,1.26,7.62,3.33,10.3,6.68,3.11,3.89,2.83,8.27-.38,12.05-2.87,3.38-9.49,3.79-12.94,1.23,1.45-1.05,2.78-2.04,4.15-2.99,2.9-2.02,2.98-3.36-.38-4.51-5.11-1.76-10.42-3.02-15.71-4.18-3.02-.66-6.18-.73-9.28-.99-1.52-.13-2.32.33-2.26,2.21.26,8.3.37,16.6.44,24.9.01,1.82.39,3.04,2.42,3.24,9.94.98,19.93,1.55,29.68-.94,7.47-1.92,14.67-4.75,19.55-11.37,4.95-6.71,5.36-13.84,2.02-21.29-4.36-9.72-11.37-17.31-19.76-23.63-18.65-14.07-39.59-22.38-62.93-24.58-7.62-.72-15.2-.87-22.76.42-1.46.25-2.88.7-4.32,1.06.06.3.12.6.18.89Z"/>
  <path class="cls-1" d="m386.47,322.92c-7.01,6.59-12.08,14.15-17.1,22.39,13.44-1.51,21.36-15,17.1-22.39h0Zm-18.18-13.29c0,1.91.38,3.37-.07,4.5-1.38,3.42-3.11,6.69-4.65,10.05-1.61,3.51-3.29,6.99-4.66,10.59-.46,1.22-.07,2.76.15,4.19,3.87-7.04,9.21-12.76,14.81-18.27,1.29-1.27,2.7-2.44,4.17-3.5,7.11-5.13,14.14-2.17,15.24,6.57,1.66,13.22-3.4,23.12-15.64,30.82-2.65,1.67-6.4,2.08-9.67,2.14-2.95.06-4.46.59-5.26,3.65-2.31,8.84-4.98,17.58-7.41,26.39-.52,1.9-.54,3.93-.94,5.88-.57,2.77-1.53,3.18-3.95,1.62-3.86-2.49-6.15-5.99-6.41-10.67-.41-7.4,1.43-14.39,4.02-21.22,1.44-3.79,3.01-7.53,4.38-11.35.32-.89.36-2.09.04-2.96-3.05-8.22-1.68-15.98,2.36-23.45,2.65-4.89,5.72-9.47,10.17-12.96.84-.66,1.83-1.13,3.33-2.02Z"/>
  <path class="cls-1" d="m233.42,325.13c1.35.35,2.68.83,4.05,1.02,7.27,1.04,14.59,1.74,21.8,3.09,6.5,1.22,9.33,4.33,9.95,9.61.88,7.41-1.37,12.19-7.18,15.25-9.61,5.06-24.86,2.52-32.25-5.38-4.03-4.31-3.19-9.17,2-11.88,3.3-1.73,6.86-2.01,10.37-1.4,4.41.77,8.74,1.97,13.07,3.12.76.2,1.34,1.11,2,1.69-.61.67-1.09,1.58-1.84,1.96-3.73,1.88-7.47,2.99-11.6.75-2.17-1.18-4.66-1.82-7.06-2.5-1.03-.29-2.36-.41-3.28,0-.97.43-2.05,1.48-2.27,2.44-.17.72.79,1.94,1.56,2.55.84.67,2,1.17,3.07,1.27,7.11.72,14.19.77,20.84-2.42,1.38-.66,2.72-1.55,3.85-2.57,1.74-1.57,1.62-3.47-.51-4.35-3.4-1.4-6.92-2.74-10.52-3.32-5.79-.94-11.69-1.19-17.53-1.84-6.77-.75-9.18-5.23-5.52-11.05,1.52-2.41,4.06-4.82,6.67-5.79,11.09-4.14,22.51-5.23,34.06-1.69,1.42.44,3.32.66,3.1,2.81-.21,2.03-1.26,3.72-3.42,4-3.68.47-7.39.69-11.09,1-6.28.53-12.55,1.01-18.82,1.62-1.19.12-2.33.73-3.5,1.11,0,.3.01.6.02.89Z"/>
  <path class="cls-1" d="m324.07,345.97c4.56-.87,8.52-1.65,12.49-2.38,1.36-.25,2.73-.43,4.11-.55,2.34-.2,3.92.85,4.96,2.96,1.01,2.06-.23,3.28-1.5,4.48-5.21,4.88-11.48,7.69-18.45,8.75-7.41,1.12-13.2-5.01-12.14-12.58.22-1.53.58-3.07,1.11-4.52,1.05-2.89,1.89-5.69.57-8.77-.64-1.48.04-2.69,1.66-3.23,3.03-1.02,3.89-3.75,4.76-6.36.14-.42-.58-1.31-1.11-1.73-1.49-1.19-3.37-2-4.57-3.4-1.77-2.08-1.18-3.46,1.6-3.85,6.92-.98,13.87-1.83,20.81-2.6,2.13-.24,4.32-.17,6.48-.06,3.39.17,7.29,3.82,7.4,7.15.02.74-1.25,2.1-2.06,2.2-5.22.69-10.46,1.24-15.72,1.57-2.6.16-3.92,1.18-4.4,3.72-.36,1.91.17,2.44,2.1,2.37,3.1-.12,6.2.03,9.31.09,1.47.03,2.4.76,2.07,2.27-.34,1.62,1.29,4.2-1.75,4.62-3.5.48-7.04.76-10.57.89-4.71.17-4.71.08-5.91,4.54-.35,1.31-.73,2.61-1.24,4.44Z"/>
  <path class="cls-1" d="m284.08,330.06c-.37,1.61-.7,2.53-.76,3.47-.37,5.61-.65,11.22-1.01,16.82-.07,1.02-.13,2.24-.69,2.98-.87,1.14-2.1,2.58-3.33,2.74-1.21.15-2.89-.86-3.83-1.85-.87-.91-1.34-2.45-1.46-3.77-.99-10.21.79-20.14,3.34-29.97.02-.08.06-.16.1-.24,2.88-6.64,5.37-7.46,9.6-1.7,4.69,6.4,9.08,13.03,13.61,19.55.48.7,1.03,1.35,2.06,2.7,0-1.86.2-2.99-.03-4.04-2.01-9.18-4.12-18.33-6.11-27.52-.22-1.01-.34-2.47.21-3.14,1.15-1.41,2.91-.9,3.87.27,2.83,3.44,6.21,6.72,7.98,10.68,4.42,9.88,4.42,20.36,1.83,30.74-1.65,6.59-8.66,8.32-12.73,2.91-4.33-5.75-7.64-12.28-11.39-18.46-.29-.48-.56-.98-1.24-2.17Z"/>
  <path class="cls-1" d="m470.6,324.65v8.15h-25.28c0,4.07.08,7.85-.02,11.62-.09,3.54-.39,7.08-.57,10.61-.1,1.99-.94,2.89-3.09,2.78-5.45-.28-5.86,1.33-5.32-5.78.42-5.51.39-11.05.6-16.58.08-1.95-.63-2.69-2.71-2.64-6.49.14-12.98-.04-19.47.11-2.19.05-3.01-.69-2.83-2.77,0-.08-.01-.17-.02-.26-.37-5.22-.16-5.38,4.94-5.33,6.39.07,12.78.02,19.9.02-1.07-8.54-2.1-16.79-3.22-25.69,2.56,0,4.97-.21,7.29.13.73.1,1.66,1.63,1.79,2.6.87,6.42,1.63,12.85,2.26,19.29.23,2.33.73,3.4,3.53,3.25,5.78-.31,11.59-.11,17.39-.03,1.53.02,3.06.33,4.82.53Z"/>
  <path class="cls-1" d="m207.45,293.34c3.7-4.22,7.2-8.2,10.79-12.28-6.5.29-12.98,7.4-10.79,12.28h0Zm7.73,4.22c4.32-6.89,9.5-11.93,16.19-15.3,2.17-1.09,4.61-1.3,6.41.87,1.48,1.79.96,4.58-1.25,6.78-5.74,5.68-12.77,7.88-21.34,7.65h0Zm1.23,7.96c-1.2-.12-2.44-.47-3.6-.29-1.12.17-2.44.62-3.15,1.41-1.68,1.85-3.26,1.96-4.48-.21-.61-1.11-.86-2.42-1.26-3.65-.56-1.71-.91-3.53-1.7-5.12-2.41-4.83-2.07-9.56,1.11-13.68,6.17-8.01,14.19-12.88,24.68-12.28,2.03.12,4.03,1.25,5.96,2.1,1.65.72,3.14,1.8,4.77,2.57,5.5,2.58,7.32,7.51,4.74,13.09-.33.7-.65,1.44-1.15,2.02-5.65,6.66-12.32,11.83-21.03,13.81-1.57.36-3.25.27-4.88.39,0-.05-.01-.11-.02-.17Z"/>
  <path class="cls-1" d="m222.42,340.28c0,3.8,0,7.59,0,11.39,0,3.71-1.08,5.45-3.49,5.69-4.17.41-6.37-.87-6.94-4.77-.55-3.74-.83-7.58-.64-11.35.39-7.74,1.17-15.46,1.81-23.19.03-.43.06-.93.29-1.25.9-1.25,1.88-2.44,2.82-3.65,1.2,1.23,3.09,2.28,3.46,3.73.92,3.66,1.28,7.47,1.63,11.25.37,4.04.47,8.1.68,12.15h.39Z"/>
  <path class="cls-2" d="m126.76,349.76c-1.65-.56-3.31-.83-4.65-1.63-5.83-3.5-11.59-7.13-17.32-10.78-.92-.59-1.66-1.51-2.38-2.37-2.94-3.5-2.58-4.91,1.77-6.5,7.22-2.63,14.74-3.54,22.59-4.02v25.31Z"/>
  <path class="cls-2" d="m386.47,322.92c4.26,7.38-3.67,20.87-17.1,22.39,5.02-8.23,10.09-15.8,17.1-22.39Z"/>
  <path class="cls-2" d="m215.18,297.56c4.32-6.89,9.5-11.93,16.19-15.3,2.17-1.09,4.61-1.3,6.41.87,1.48,1.79.96,4.59-1.26,6.78-5.73,5.68-12.77,7.88-21.34,7.65Z"/>
  <path class="cls-2" d="m207.45,293.34c-2.19-4.88,4.29-11.99,10.79-12.28-3.58,4.08-7.08,8.06-10.79,12.28Z"/>
  <path class="cls-4" d="m434.52,281.61c-3.22,2.11-5.77,1.39-8.23-1.69-6.64-8.44-12.9-17.24-20.31-25.02-12.28-12.94-26.43-23.57-42.2-32.14-15.21-8.31-31.31-14.26-48.13-18.39-18.58-4.55-37.47-5.53-56.53-4.12-17.55,1.21-34.33,5.52-50.7,11.73-7.02,2.64-13.82,5.69-20.39,9.2-2.92,1.77-5.72,3.73-8.63,5.57-8.67,5.36-16.66,11.99-24.81,18.21-2.97,2.29-5.47,2.29-8-.41-2.28-2.53-1.83-5.33,1.61-8.29,10.78-9.55,22.71-17.62,35.56-24.23.27-.12.53-.32.8-.44,1.52-.93,3.13-1.8,4.67-2.66,9.8-5.19,19.67-8.27,29.81-11.98,7.04-2.5,14.45-3.82,21.67-5.69,21.53-3.61,43.02-3.76,64.47-.37,38.07,6.01,71.43,22.25,100.22,47.97,11.26,10.04,21.21,21.41,29.76,33.99,2.6,3.87,2.32,6.86-.64,8.78Z"/>
</svg>